HIERARCHY
ROOT Hips
{
  OFFSET 13.6774 106.653 -34.4427
  CHANNELS 6 Xposition Yposition Zposition Zrotation Xrotation Yrotation
  JOINT ToSpine
  {
    OFFSET -2.69724 7.43032 -0.144315
    CHANNELS 3 Zrotation Xrotation Yrotation
    JOINT Spine
    {
      OFFSET -0.0310711 10.7595 1.96963
      CHANNELS 3 Zrotation Xrotation Yrotation
      JOINT Spine1
      {
        OFFSET 19.9056 3.91189 0.764692
        CHANNELS 3 Zrotation Xrotation Yrotation
        JOINT Neck
        {
          OFFSET 25.9749 7.03908 -0.130764
          CHANNELS 3 Zrotation Xrotation Yrotation
          JOINT Head
          {
            OFFSET 9.52751 0.295786 -0.907742
            CHANNELS 3 Zrotation Xrotation Yrotation
            End Site
            {
              OFFSET 16.4037 0.713936 2.7358
            }
          }
        }
        JOINT LeftShoulder
        {
          OFFSET 17.7449 4.33886 11.7777
          CHANNELS 3 Zrotation Xrotation Yrotation
          JOINT LeftArm
          {
            OFFSET 0.911315 1.27913 9.80584
            CHANNELS 3 Zrotation Xrotation Yrotation
            JOINT LeftForeArm
            {
              OFFSET 28.6126 1.18197 -3.53199
              CHANNELS 3 Zrotation Xrotation Yrotation
              JOINT LeftHand
              {
                OFFSET 27.5088 0.0218783 0.327423
                CHANNELS 3 Zrotation Xrotation Yrotation
                End Site
                {
                  OFFSET 18.6038 -0.000155887 0.382096
                }
              }
            }
          }
        }
        JOINT RightShoulder
        {
          OFFSET 17.1009 2.89543 -12.2328
          CHANNELS 3 Zrotation Xrotation Yrotation
          JOINT RightArm
          {
            OFFSET 1.4228 0.178766 -10.211
            CHANNELS 3 Zrotation Xrotation Yrotation
            JOINT RightForeArm
            {
              OFFSET 28.733 1.87905 2.64907
              CHANNELS 3 Zrotation Xrotation Yrotation
              JOINT RightHand
              {
                OFFSET 27.4588 0.290562 -0.101845
                CHANNELS 3 Zrotation Xrotation Yrotation
                End Site
                {
                  OFFSET 17.8396 -0.255518 -0.000602873
                }
              }
            }
          }
        }
      }
    }
  }
  JOINT LeftUpLeg
  {
    OFFSET -5.61296 -2.22332 -10.2353
    CHANNELS 3 Zrotation Xrotation Yrotation
    JOINT LeftLeg
    {
      OFFSET 2.56703 -44.7417 -7.93097
      CHANNELS 3 Zrotation Xrotation Yrotation
      JOINT LeftFoot
      {
        OFFSET 3.16933 -46.5642 -3.96578
        CHANNELS 3 Zrotation Xrotation Yrotation
        JOINT LeftToeBase
        {
          OFFSET 0.346054 -6.02161 12.8035
          CHANNELS 3 Zrotation Xrotation Yrotation
          End Site
          {
            OFFSET 0.134235 -1.35082 5.13018
          }
        }
      }
    }
  }
  JOINT RightUpLeg
  {
    OFFSET -5.7928 -1.72406 10.6446
    CHANNELS 3 Zrotation Xrotation Yrotation
    JOINT RightLeg
    {
      OFFSET -2.57161 -44.7178 -7.85259
      CHANNELS 3 Zrotation Xrotation Yrotation
      JOINT RightFoot
      {
        OFFSET -3.10148 -46.5936 -4.03391
        CHANNELS 3 Zrotation Xrotation Yrotation
        JOINT RightToeBase
        {
          OFFSET -0.0828122 -6.13587 12.8035
          CHANNELS 3 Zrotation Xrotation Yrotation
          End Site
          {
            OFFSET -0.131328 -1.35082 5.13018
          }
        }
      }
    }
  }
}
MOTION
Frames: 8
Frame Time: 0.03333333333333333
0.0000 93.1000 0.0000 75.0237 -25.3957 -4.0850 -71.0015 0.0563 87.9945 128.0318 65.1240 -42.2009 -6.9275 19.0531 7.8786 -130.2155 43.5917 152.8626 139.6554 84.9978 -105.3063 -0.9757 -18.0380 -28.2133 -65.0693 28.9560 -143.9361 30.0698 -3.0896 -94.1866 0.0867 -0.0091 0.2621 -3.0136 7.0338 45.7579 -136.9652 -3.5149 104.6919 14.9244 -9.2648 60.0106 0.1357 0.1251 -0.0493 -21.0580 15.3359 81.1593 -35.0009 82.1193 25.0630 0.3818 -17.6174 -2.0386 6.1440 -15.8766 20.8001 -21.2506 -17.2125 82.6894 19.9792 78.0728 -7.9761 -8.6205 -17.3804 0.9537 1.6338 -15.9713 -13.6115 
0.0000 93.1000 0.0000 73.9764 -24.8124 -4.9736 -71.0021 0.2072 87.9920 127.7935 65.2108 -41.3063 -7.0097 18.9667 7.6589 -130.1613 43.6230 152.9385 140.7881 85.1447 -106.4888 -1.0938 -17.8360 -27.6184 -64.8526 27.8658 -144.8671 30.0509 -3.3488 -94.3605 -0.3569 0.1642 0.1721 -3.0407 7.1566 45.6938 -136.9157 -2.7785 105.0007 15.9118 -9.7071 59.9592 -0.0811 -0.0293 -0.1774 -23.0484 15.9934 80.7572 -30.0784 81.2011 20.2879 0.3406 -17.2441 -2.0453 6.3355 -15.9156 20.1332 -20.6316 -16.6602 83.1922 18.8699 77.7647 -8.0653 -9.6798 -16.6445 0.9018 1.7861 -18.8127 -14.6312 
0.0000 93.1000 0.0000 74.0305 -24.9115 -5.2691 -70.9999 0.4472 87.9916 126.9390 65.5587 -40.7333 -6.8855 18.9415 8.1092 -130.2541 44.0060 152.9267 143.5766 85.5139 -108.9495 -0.6644 -17.7151 -27.1274 -65.0874 27.2391 -146.9670 29.8849 -3.2103 -93.9227 -0.3056 0.3197 0.0799 -2.7650 7.0801 44.9057 -137.8969 -1.5232 106.0301 16.1124 -9.9023 59.8115 -0.2583 -0.1538 -0.2316 -25.1341 16.7726 81.0653 -25.2334 80.4380 14.1037 0.1415 -17.0362 -2.2499 6.0014 -15.1157 20.2928 -21.1712 -16.4180 83.0570 16.8600 77.0375 -7.0672 -10.0379 -16.7449 1.0801 2.3654 -17.9309 -14.4433 
0.0000 93.1000 0.0000 73.0009 -24.4528 -6.0279 -71.0018 0.2078 87.9909 124.9911 65.8887 -40.2193 -7.1812 18.3144 9.2724 -130.3851 43.7335 153.1529 148.5300 85.7292 -114.2765 -0.9881 -17.7640 -26.6268 -65.0486 26.1649 -148.8473 29.3661 -2.9457 -94.4191 -0.4876 0.1511 0.2449 -2.9972 6.7113 45.2723 -138.1984 -1.6635 106.0977 16.2996 -10.5250 59.9922 -0.1157 -0.0244 -0.1803 -26.9867 17.8311 81.9510 -20.6875 78.5822 8.3985 -0.3027 -17.9630 -1.8112 5.5602 -14.7269 19.8032 -21.8908 -16.3404 83.7634 15.0046 75.5244 -5.0511 -8.4310 -16.0498 0.6011 2.4602 -18.0622 -15.1948 
0.0000 93.1000 0.0000 72.9154 -24.0072 -6.0092 -71.0000 0.4882 87.9902 123.9855 66.3839 -37.9971 -6.8855 18.1768 9.7237 -130.2747 43.1859 152.1424 146.4814 85.1228 -112.7147 -0.6483 -17.5470 -25.8007 -65.8300 26.0409 -149.8436 28.5843 -2.8775 -94.2975 -0.4252 0.2968 0.1107 -2.8919 6.7374 45.1113 -138.7969 -1.1315 106.7315 16.0684 -11.0837 59.8668 -0.2468 -0.1415 -0.1802 -29.1862 19.8277 82.9776 -17.0831 76.1530 3.0186 -0.4793 -17.7139 -1.9753 6.2243 -16.8929 20.7971 -21.7769 -15.7443 84.1043 13.1184 73.9321 -4.0958 -7.5369 -17.2990 0.7377 1.6804 -16.6119 -13.9028 
0.0000 93.1000 0.0000 71.9988 -24.0377 -6.0201 -70.9988 0.6749 87.9914 121.9330 67.1798 -36.8747 -6.5124 18.1047 10.0714 -128.4102 43.2184 150.3523 150.7629 85.6276 -115.5535 -0.4422 -18.0372 -25.4578 -66.0094 25.1649 -151.9191 29.1072 -2.2279 -93.2668 -0.5372 0.3282 0.0111 -2.8371 6.4965 45.0144 -139.0532 -0.9229 106.9634 16.6151 -10.6168 59.6882 -0.1948 -0.1609 -0.2288 -30.8447 20.5173 85.2652 -15.3393 73.2723 -2.9791 -0.3880 -17.7117 -2.0965 7.3396 -19.2459 22.3248 -23.0479 -15.7058 84.2525 9.6367 70.9291 -2.1696 -7.2624 -16.0690 0.7628 0.8667 -15.5527 -11.5839 
0.0000 93.1000 0.0000 72.1509 -23.9944 -5.8614 -71.0058 -0.5187 87.9924 119.9990 67.6582 -35.2020 -6.5675 17.7587 10.8794 -127.4177 43.0726 149.2195 155.5695 85.7505 -120.4508 -0.2469 -18.0009 -25.2126 -66.1458 24.1896 -153.8782 29.0152 -1.7975 -93.0260 -0.6689 -0.7326 0.5943 -2.9465 6.3359 44.8746 -138.8673 -0.1468 106.9750 16.3679 -10.1061 59.8192 0.6198 0.8774 0.6655 -32.1799 21.0760 87.0070 -13.2292 70.2518 -6.1147 0.0058 -17.7981 -1.6778 7.8398 -18.9585 21.1611 -23.7392 -16.2999 83.1224 8.9930 69.1526 0.1721 -5.7860 -13.7934 0.0355 2.0050 -16.5610 -11.2234 
0.0000 93.1000 0.0000 71.9983 -24.3484 -4.8966 -71.0046 -0.5502 87.9926 119.0317 67.9857 -34.4718 -6.3416 17.9919 10.8183 -128.3569 42.7808 151.3414 144.8427 84.9601 -108.9306 0.0411 -17.9098 -25.0430 -66.8892 23.9978 -154.8235 29.1053 -1.6441 -92.4731 -0.2296 -0.6933 0.3720 -2.7983 6.7527 44.2274 -138.1317 -0.2426 105.9435 16.6411 -10.2445 60.9288 0.3515 0.8180 0.6196 -33.1029 20.9996 88.9000 -10.8347 68.3447 -8.7499 0.0639 -19.8582 -1.9431 8.2314 -18.2569 21.6315 -24.0089 -17.3316 82.8307 7.9359 66.9741 3.8243 -4.7512 -10.0268 0.1389 2.3067 -17.7351 -10.4180 
